<svg width="17" height="13" viewBox="0 0 17 13" fill="none" xmlns="http://www.w3.org/2000/svg">
<path d="M7.16386 1.28373C7.36386 1.48373 7.45986 1.7254 7.45186 2.00873C7.44386 2.29206 7.33953 2.53373 7.13886 2.73373L4.31386 5.55873L15.4639 5.55873C15.7472 5.55873 15.9849 5.65473 16.1769 5.84673C16.3689 6.03873 16.4645 6.27606 16.4639 6.55873C16.4639 6.84206 16.3679 7.07973 16.1759 7.27173C15.9839 7.46373 15.7465 7.55939 15.4639 7.55873L4.31386 7.55873L7.16386 10.4087C7.36386 10.6087 7.46386 10.8464 7.46386 11.1217C7.46386 11.3971 7.36386 11.6344 7.16386 11.8337C6.96386 12.0337 6.7262 12.1337 6.45086 12.1337C6.17553 12.1337 5.9382 12.0337 5.73886 11.8337L1.16386 7.25873C1.06386 7.15873 0.992863 7.0504 0.950863 6.93373C0.908863 6.81706 0.888196 6.69206 0.888863 6.55873C0.888863 6.4254 0.909864 6.3004 0.951864 6.18373C0.993864 6.06706 1.06453 5.95873 1.16386 5.85873L5.76386 1.25873C5.9472 1.0754 6.1762 0.983727 6.45086 0.983727C6.72553 0.983727 6.9632 1.08373 7.16386 1.28373Z" fill="white"/>
</svg>
