<svg width="21" height="20" viewBox="0 0 21 20" fill="none" xmlns="http://www.w3.org/2000/svg">
<g clip-path="url(#clip0_53_7)">
<path d="M0.274729 10.4175C0.495979 15.7369 4.88035 20 10.2535 20C15.6266 20 20.011 15.7369 20.2322 10.4175C20.2454 10.384 20.2526 10.3485 20.2535 10.3125C20.2535 10.29 20.2454 10.2706 20.241 10.25C20.2429 10.1662 20.2535 10.0844 20.2535 10C20.2535 4.48625 15.7672 0 10.2535 0C4.73973 0 0.253479 4.48625 0.253479 10C0.253479 10.0844 0.264104 10.1662 0.265979 10.25C0.261604 10.2706 0.253479 10.29 0.253479 10.3125C0.253479 10.35 0.262854 10.3844 0.274729 10.4175ZM15.8291 14.2138C14.9799 13.8612 14.0973 13.5951 13.1947 13.4194C13.2935 12.5113 13.3516 11.5681 13.3697 10.6256H16.4822C16.4254 11.9094 16.1972 13.1213 15.8291 14.2138ZM17.1066 10.625H19.5966C19.4864 12.3267 18.9107 13.9653 17.9322 15.3619C17.4462 15.0198 16.9325 14.7188 16.3966 14.4619C16.7997 13.2937 17.0479 11.9975 17.1066 10.625ZM7.9966 13.9287C8.74315 13.811 9.4977 13.7512 10.2535 13.75C11.0185 13.75 11.7741 13.8137 12.5097 13.9287C12.076 17.2631 11.1285 19.375 10.2535 19.375C9.37848 19.375 8.43098 17.2631 7.9966 13.9287ZM8.94598 19.165C7.2266 18.6137 5.77223 16.9956 4.89473 14.8C5.69849 14.4638 6.53392 14.209 7.38848 14.0394C7.67535 16.2244 8.19973 18.1281 8.94598 19.165ZM7.92473 6.69312C8.6952 6.81312 9.47372 6.87393 10.2535 6.875C11.0332 6.87393 11.8118 6.81312 12.5822 6.69312C12.6897 7.70562 12.7535 8.81063 12.7535 10H7.75348C7.75348 8.81063 7.81723 7.70562 7.92473 6.69312ZM12.7441 10.625C12.7292 11.5209 12.675 12.4157 12.5816 13.3069C11.8114 13.1868 11.033 13.126 10.2535 13.125C9.47372 13.126 8.69519 13.1869 7.92473 13.3069C7.83109 12.4157 7.77687 11.5209 7.76223 10.625H12.7441ZM13.1191 14.0394C13.9966 14.2156 14.8335 14.4719 15.6129 14.8C14.7354 16.9956 13.281 18.6137 11.5616 19.165C12.3072 18.1281 12.8316 16.2244 13.1191 14.0394ZM13.3785 10C13.3785 8.8525 13.3147 7.69 13.1947 6.58125C14.1197 6.39875 15.0047 6.13125 15.8291 5.78687C16.2566 7.055 16.5035 8.48375 16.5035 10H13.3785ZM13.1191 5.96062C12.8316 3.77562 12.3079 1.87125 11.561 0.835C13.2804 1.38625 14.7347 3.00437 15.6122 5.2C14.8088 5.53646 13.9735 5.79128 13.1191 5.96062ZM12.5104 6.07125C11.7741 6.18625 11.0185 6.25 10.2535 6.25C9.48848 6.25 8.73285 6.18625 7.9966 6.07125C8.43098 2.73687 9.37848 0.625 10.2535 0.625C11.1285 0.625 12.076 2.73687 12.5104 6.07125ZM7.38785 5.96062C6.53331 5.7909 5.6979 5.53609 4.8941 5.2C5.7716 3.00437 7.22598 1.38625 8.94535 0.835C8.19973 1.87188 7.67535 3.77562 7.38785 5.96062ZM7.31223 6.58125C7.19015 7.71675 7.12882 8.85796 7.12848 10H4.00348C4.00348 8.48375 4.25035 7.055 4.67785 5.78625C5.50223 6.13125 6.38723 6.39812 7.31223 6.58125ZM7.13723 10.625C7.15535 11.5675 7.21348 12.5106 7.31223 13.4194C6.38723 13.6019 5.50223 13.8694 4.67785 14.2138C4.30973 13.1213 4.0816 11.9094 4.02473 10.625H7.13723ZM4.10973 14.4619C3.57412 14.719 3.06071 15.0201 2.57473 15.3619C1.59621 13.9653 1.02044 12.3267 0.910354 10.625H3.40035C3.4591 11.9975 3.70723 13.2937 4.10973 14.4619ZM2.9491 15.8625C3.38652 15.5544 3.84777 15.2817 4.32848 15.0469C4.95598 16.6 5.8591 17.8894 6.94473 18.7612C5.37854 18.1679 3.99916 17.1672 2.9491 15.8625ZM13.5622 18.7606C14.6485 17.8894 15.551 16.5994 16.1785 15.0462C16.6722 15.2862 17.1297 15.5625 17.5579 15.8619C16.5082 17.167 15.1287 18.1678 13.5622 18.7606ZM17.1285 10C17.1285 8.39563 16.861 6.88313 16.3972 5.53813C16.9472 5.27438 17.4585 4.97125 17.9329 4.63813C19.0367 6.20816 19.6289 8.08074 19.6285 10H17.1285ZM17.5585 4.1375C17.1304 4.43687 16.6729 4.71313 16.1791 4.95313C15.5516 3.4 14.6485 2.11 13.5629 1.23875C15.1289 1.83238 16.5082 2.83303 17.5585 4.1375ZM6.94473 1.23938C5.85848 2.11063 4.95598 3.40063 4.32848 4.95375C3.84781 4.71861 3.38657 4.44567 2.9491 4.1375C3.99903 2.83277 5.37847 1.83224 6.94473 1.23938ZM2.57473 4.63813C3.06062 4.98007 3.57405 5.2811 4.10973 5.53813C3.62093 6.97475 3.37382 8.4825 3.37848 10H0.878479C0.878479 8.00625 1.5091 6.15938 2.57473 4.63813Z" fill="white"/>
</g>
<defs>
<clipPath id="clip0_53_7">
<rect width="20" height="20" fill="white" transform="translate(0.253479)"/>
</clipPath>
</defs>
</svg>
