<svg width="14" height="18" viewBox="0 0 14 18" fill="none" xmlns="http://www.w3.org/2000/svg">
<path d="M6.7985 8.76569C7.25684 8.76569 7.64934 8.60236 7.976 8.27569C8.30267 7.94902 8.46572 7.5568 8.46517 7.09902C8.46517 6.64069 8.30184 6.24819 7.97517 5.92152C7.6485 5.59486 7.25628 5.4318 6.7985 5.43236C6.34017 5.43236 5.94767 5.59569 5.621 5.92236C5.29434 6.24902 5.13128 6.64125 5.13184 7.09902C5.13184 7.55736 5.29517 7.94986 5.62184 8.27652C5.9485 8.60319 6.34072 8.76625 6.7985 8.76569ZM6.7985 17.099C4.56239 15.1962 2.89239 13.429 1.7885 11.7974C0.684614 10.1657 0.132391 8.65514 0.131836 7.26569C0.131836 5.18236 0.802114 3.52264 2.14267 2.28652C3.48322 1.05041 5.03517 0.432358 6.7985 0.432358C8.56239 0.432358 10.1146 1.05041 11.4552 2.28652C12.7957 3.52264 13.4657 5.18236 13.4652 7.26569C13.4652 8.65458 12.9129 10.1651 11.8085 11.7974C10.7041 13.4296 9.03406 15.1968 6.7985 17.099Z" fill="#404040"/>
</svg>
