<svg width="19" height="19" viewBox="0 0 19 19" fill="none" xmlns="http://www.w3.org/2000/svg">
<path d="M1.28145 18.5988C0.981445 18.5988 0.731445 18.4988 0.531445 18.2988C0.331445 18.0988 0.231445 17.8488 0.231445 17.5488V13.4988C0.231445 13.2655 0.306445 13.0611 0.456445 12.8858C0.606445 12.7105 0.798112 12.5981 1.03145 12.5488L4.48145 11.8488C4.71478 11.8155 4.95245 11.8365 5.19445 11.9118C5.43645 11.9871 5.63211 12.0995 5.78145 12.2488L8.13144 14.5988C9.39811 13.8321 10.5564 12.9238 11.6064 11.8738C12.6564 10.8238 13.5314 9.69882 14.2314 8.49882L11.8314 6.04882C11.6814 5.89882 11.5854 5.72782 11.5434 5.53582C11.5014 5.34382 11.4974 5.13148 11.5314 4.89882L12.1814 1.39882C12.2148 1.16548 12.3231 0.973816 12.5064 0.823816C12.6898 0.673816 12.8981 0.598816 13.1314 0.598816H17.1814C17.4814 0.598816 17.7314 0.698816 17.9314 0.898816C18.1314 1.09882 18.2314 1.34882 18.2314 1.64882C18.2314 3.79882 17.7521 5.89482 16.7934 7.93682C15.8348 9.97882 14.5681 11.7871 12.9934 13.3618C11.4188 14.9365 9.61045 16.2031 7.56845 17.1618C5.52645 18.1205 3.43078 18.5995 1.28145 18.5988Z" fill="#4AC1D9"/>
</svg>
